<svg width="104" height="36" viewBox="0 0 104 36" fill="none" xmlns="http://www.w3.org/2000/svg">
<path d="M0 25.6606C0 31.7232 4.70351 36 10.771 36C17.9674 36 21.3539 30.5483 21.3539 25.8486C21.3539 18.329 15.1453 16.6371 11.4295 15.6031C7.1023 14.3812 4.56241 13.3003 4.56241 9.49347C4.56241 6.39164 6.25567 3.14882 10.5359 3.14882C15.8038 3.14882 16.9326 7.1906 17.0267 9.39948H20.5073C20.4132 4.79373 17.403 0 10.9592 0C3.76281 0 1.08181 5.54569 1.08181 9.44647C1.08181 17.436 8.74853 17.765 13.2169 19.5039C14.722 20.0679 17.8733 21.5718 17.8733 25.8016C17.8733 29.5144 15.2864 32.8512 10.677 32.8512C4.18613 32.8512 3.57467 27.0705 3.4806 25.6606H0Z" fill="black"/>
<path d="M24.7196 35.389H28.2002V19.5039H41.8404V16.3551H28.2002V3.75979H42.3578V0.610966H24.7196V35.389Z" fill="black"/>
<path d="M51.2474 3.75979H59.8318C68.0629 3.75979 70.1795 7.94256 70.1795 11.6554C70.1795 19.5509 61.8073 19.6449 59.8318 19.6449H57.0567L68.8625 35.389H73.1898L63.4065 22.4178C69.6151 21.9948 73.6601 17.624 73.6601 11.9843C73.6601 9.11749 72.9075 0.610966 59.8318 0.610966H51.2474V3.75979Z" fill="black"/>
<path d="M69.9431 35.389H73.7059L78.7386 23.7337H94.9187L99.9515 35.389H103.714L88.8042 0.610966H84.9473L69.9431 35.389ZM80.1026 20.5849L86.8757 4.65274L93.5547 20.5849H80.1026Z" fill="black"/>
<path d="M46.0952 35.5677H48.9752V0.575684H46.0952V35.5677Z" fill="#BB141A"/>
</svg>
